<svg width="24.000000" height="24.000000" viewBox="0 0 24 24" fill="none">
  <defs>
    <clipPath id="clip335_10108">
      <rect id="logo 1" width="24.000000" height="20.179619" transform="translate(0.000000 2.000000)" fill="white"
        fill-opacity="0" />
    </clipPath>
  </defs>

  <rect id="Wallet" width="24.000000" height="24.000000" fill="#FFFFFF" fill-opacity="0" />
  <rect id="logo 1" width="24.000000" height="20.179619" transform="translate(0.000000 2.000000)" fill="#FFFFFF"
    fill-opacity="0" />
  <g clip-path="url(#clip335_10108)">
    <path id="Vector"
      d="M4.1499 2C5.14746 2 5.93408 2.25757 6.50879 2.77246C7.08789 3.28345 7.37744 3.9541 7.37744 4.78442C7.37744 5.61865 7.08789 6.28955 6.50879 6.79639C5.93408 7.30347 5.14746 7.55688 4.1499 7.55688L2.67676 7.55688L2.67676 9.49097L3.61084 9.67065L3.61084 10.7185L0 10.7185L0 9.67065L0.928223 9.49097L0.928223 3.23364L0 3.05396L0 2L4.1499 2ZM2.67676 6.20947L4.1499 6.20947C4.63672 6.20947 5.00391 6.07788 5.25146 5.81445C5.50293 5.54688 5.62891 5.20752 5.62891 4.79639C5.62891 4.3772 5.50293 4.03198 5.25146 3.7605C5.00391 3.48511 4.63672 3.34741 4.1499 3.34741L2.67676 3.34741L2.67676 6.20947Z"
      fill="#FFC93F" fill-opacity="1.000000" fill-rule="nonzero" />
    <path id="Vector"
      d="M12.0361 10.7185C11.9883 10.6106 11.9463 10.501 11.9102 10.3892C11.874 10.2734 11.8462 10.1575 11.8262 10.0417C11.6187 10.2812 11.3652 10.4749 11.0659 10.6226C10.7705 10.7703 10.4312 10.8442 10.0479 10.8442C9.41309 10.8442 8.9082 10.6726 8.53271 10.3291C8.16162 9.98193 7.97607 9.51074 7.97607 8.91602C7.97607 8.30933 8.21973 7.84009 8.70654 7.50879C9.19385 7.17749 9.9082 7.01172 10.8501 7.01172L11.7427 7.01172L11.7427 6.3772C11.7427 6.06567 11.6528 5.82422 11.4731 5.65259C11.2935 5.48096 11.0278 5.39502 10.6768 5.39502C10.4771 5.39502 10.2993 5.41895 10.1436 5.46704C9.98828 5.51074 9.8623 5.5647 9.7666 5.62866L9.65283 6.32324L8.33545 6.32324L8.34131 4.88599C8.66064 4.67041 9.02588 4.48877 9.43701 4.34106C9.85254 4.19336 10.3032 4.11963 10.7905 4.11963C11.5928 4.11963 12.2437 4.31714 12.7427 4.7124C13.2456 5.10376 13.4971 5.6626 13.4971 6.38916L13.4971 9.06567C13.4971 9.16553 13.4971 9.25928 13.4971 9.34717C13.501 9.43506 13.5088 9.5188 13.521 9.59863L14.0537 9.67041L14.0537 10.7185L12.0361 10.7185ZM10.521 9.55078C10.7847 9.55078 11.0239 9.49487 11.2397 9.38306C11.4551 9.26733 11.6226 9.12354 11.7427 8.9519L11.7427 7.96387L10.8501 7.96387C10.479 7.96387 10.1978 8.05176 10.0059 8.22729C9.81445 8.39917 9.71875 8.60669 9.71875 8.8501C9.71875 9.06982 9.78857 9.24146 9.92822 9.36523C10.0718 9.48901 10.2695 9.55078 10.521 9.55078Z"
      fill="#FFC93F" fill-opacity="1.000000" fill-rule="nonzero" />
    <path id="Vector"
      d="M21.2637 5.29346L20.6587 5.3833L18.2754 11.6887C18.0879 12.1558 17.8364 12.5469 17.521 12.8623C17.2095 13.1777 16.7388 13.3354 16.1079 13.3354C15.96 13.3354 15.8203 13.3232 15.689 13.2993C15.561 13.2754 15.4092 13.2415 15.2334 13.1975L15.437 11.9221C15.4932 11.9302 15.5508 11.9382 15.6108 11.946C15.6709 11.9541 15.7227 11.958 15.7666 11.958C16.0581 11.958 16.2817 11.8862 16.437 11.7424C16.5928 11.6028 16.7129 11.4272 16.7964 11.2156L16.9941 10.7246L14.9404 5.38916L14.3354 5.29346L14.3354 4.2395L17.5093 4.2395L17.5093 5.29346L16.7847 5.41309L17.6709 8L17.7607 8.46704L17.7964 8.47314L18.8203 5.41309L18.0898 5.29346L18.0898 4.2395L21.2637 4.2395L21.2637 5.29346Z"
      fill="#FFC93F" fill-opacity="1.000000" fill-rule="nonzero" />
    <path id="Vector"
      d="M4.1499 13.3354C5.14746 13.3354 5.93408 13.593 6.50879 14.1079C7.08789 14.6189 7.37744 15.2896 7.37744 16.1199C7.37744 16.9541 7.08789 17.625 6.50879 18.1318C5.93408 18.6389 5.14746 18.8923 4.1499 18.8923L2.67676 18.8923L2.67676 20.8264L3.61084 21.0061L3.61084 22.054L0 22.054L0 21.0061L0.928223 20.8264L0.928223 14.5691L0 14.3894L0 13.3354L4.1499 13.3354ZM2.67676 17.5449L4.1499 17.5449C4.63672 17.5449 5.00391 17.4133 5.25146 17.1499C5.50293 16.8823 5.62891 16.543 5.62891 16.1318C5.62891 15.7126 5.50293 15.3674 5.25146 15.0959C5.00391 14.8206 4.63672 14.6829 4.1499 14.6829L2.67676 14.6829L2.67676 17.5449Z"
      fill="#7B61FF" fill-opacity="1.000000" fill-rule="nonzero" />
    <path id="Vector"
      d="M7.89844 18.7544C7.89844 17.7883 8.16797 16.998 8.70703 16.3833C9.24951 15.7644 9.99805 15.4551 10.9521 15.4551C11.9106 15.4551 12.6587 15.7625 13.1978 16.3772C13.7407 16.9919 14.0122 17.7844 14.0122 18.7544L14.0122 18.8801C14.0122 19.8542 13.7407 20.6487 13.1978 21.2634C12.6587 21.8743 11.9146 22.1797 10.9644 22.1797C10.0024 22.1797 9.24951 21.8743 8.70703 21.2634C8.16797 20.6487 7.89844 19.8542 7.89844 18.8801L7.89844 18.7544ZM9.64697 18.8801C9.64697 19.4709 9.75049 19.946 9.9585 20.3054C10.166 20.6606 10.501 20.8384 10.9644 20.8384C11.4155 20.8384 11.7446 20.6587 11.9521 20.2993C12.1641 19.9402 12.2695 19.467 12.2695 18.8801L12.2695 18.7544C12.2695 18.1797 12.1641 17.7104 11.9521 17.3472C11.7407 16.9841 11.4072 16.8025 10.9521 16.8025C10.4971 16.8025 10.166 16.9841 9.9585 17.3472C9.75049 17.7104 9.64697 18.1797 9.64697 18.7544L9.64697 18.8801Z"
      fill="#7B61FF" fill-opacity="1.000000" fill-rule="nonzero" />
    <path id="Vector"
      d="M14.9043 21.0059L15.7427 20.8264L15.7427 16.8083L14.8145 16.6287L14.8145 15.575L17.3711 15.575L17.4492 16.521C17.6011 16.1855 17.7964 15.9241 18.0361 15.7366C18.2759 15.5488 18.5532 15.4551 18.8682 15.4551C18.9604 15.4551 19.0557 15.4631 19.1558 15.479C19.2598 15.491 19.3452 15.5071 19.4131 15.5269L19.228 17.1196L18.5088 17.1018C18.2534 17.1018 18.042 17.1516 17.8745 17.2515C17.7065 17.3513 17.5791 17.4929 17.4912 17.6768L17.4912 20.8264L18.3296 21.0059L18.3296 22.054L14.9043 22.054L14.9043 21.0059Z"
      fill="#7B61FF" fill-opacity="1.000000" fill-rule="nonzero" />
    <path id="Vector"
      d="M22.6587 13.9878L22.6587 15.5747L23.7959 15.5747L23.7959 16.8022L22.6587 16.8022L22.6587 20.1016C22.6587 20.353 22.7104 20.5327 22.814 20.6404C22.918 20.7483 23.0576 20.8022 23.2334 20.8022C23.353 20.8022 23.457 20.7981 23.5449 20.7903C23.6362 20.7783 23.7383 20.7603 23.8501 20.7363L24 21.9998C23.8042 22.0596 23.6104 22.1035 23.4189 22.1316C23.2271 22.1636 23.02 22.1794 22.7964 22.1794C22.1934 22.1794 21.7285 22.0137 21.4014 21.6824C21.0776 21.3511 20.916 20.8262 20.916 20.1077L20.916 16.8022L19.9639 16.8022L19.9639 15.5747L20.916 15.5747L20.916 13.9878L22.6587 13.9878Z"
      fill="#7B61FF" fill-opacity="1.000000" fill-rule="nonzero" />
  </g>
</svg>